<?xml version="1.0" encoding="utf-8"?>
<!-- Generator: Adobe Illustrator 25.2.1, SVG Export Plug-In . SVG Version: 6.00 Build 0)  -->
<svg version="1.1" id="Layer_1" xmlns="http://www.w3.org/2000/svg" xmlns:xlink="http://www.w3.org/1999/xlink" x="0px" y="0px"
	 viewBox="0 0 4556.9 3441.8" style="enable-background:new 0 0 4556.9 3441.8;" xml:space="preserve">
<style type="text/css">
	.st0{fill:#E6E7E8;}
	.st1{fill:none;}
</style>
<g id="Layer_2_1_">
	<g id="Layer_6">
		<g id="Layer_9">
			<path class="st0" d="M2500.6,1828.4c53.1,0,106,5.3,158.1,15.9c100.3,20.6,195.6,60.6,280.4,118
				c126.1,85.1,224.8,204.9,284.1,345c20,47.4,35.4,96.7,45.7,147.2c21.2,104.3,21.2,211.8,0,316.1
				c-20.5,100.3-60.6,195.6-118,280.4c-85.1,126.1-204.9,224.8-345,284.1c-47.4,20.1-96.7,35.4-147.2,45.7
				c-104.3,21.2-211.8,21.2-316.1,0c-100.3-20.5-195.6-60.6-280.4-118c-126.1-85.1-224.8-204.9-284.1-345
				c-20.1-47.4-35.4-96.7-45.7-147.2c-21.2-104.3-21.2-211.8,0-316.1c20.5-100.3,60.6-195.6,118-280.4
				c85.1-126.1,204.9-224.8,345-284.1c47.4-20.1,96.7-35.4,147.2-45.7C2394.5,1833.7,2447.4,1828.4,2500.6,1828.4 M2500.5,1823.4
				c-435.9,0-789.2,353.3-789.2,789.2s353.3,789.2,789.2,789.2s789.2-353.3,789.2-789.2S2936.4,1823.4,2500.5,1823.4z"/>
			<path class="st0" d="M3387.6,905.2c73.3,0,146.4,7.4,218.3,22c138.5,28.4,270.1,83.8,387.3,163
				c174.1,117.5,310.4,283.1,392.4,476.5c27.7,65.5,48.8,133.6,63.1,203.3c29.3,144,29.3,292.5,0,436.5
				c-28.4,138.5-83.8,270.1-163,387.3c-117.5,174.1-283.1,310.4-476.5,392.4c-65.5,27.7-133.6,48.8-203.3,63.1
				c-144,29.3-292.5,29.3-436.6,0c-138.5-28.4-270.1-83.8-387.3-163c-174.1-117.5-310.4-283.1-392.4-476.5
				c-27.7-65.5-48.8-133.6-63.1-203.3c-29.3-144-29.3-292.5,0-436.5c28.4-138.5,83.8-270.1,163-387.3
				c117.5-174.1,283.1-310.4,476.5-392.4c65.5-27.7,133.6-48.8,203.3-63.1C3241.1,912.6,3314.2,905.2,3387.6,905.2 M3387.6,900.2
				c-600.9,0-1088,487.1-1088,1088s487.1,1088,1088,1088s1088-487.1,1088-1088S3988.4,900.2,3387.6,900.2L3387.6,900.2z"/>
			<path class="st0" d="M3217.4,637.4c71.1,0,142.1,7.1,211.8,21.3c134.4,27.5,262.1,81.3,375.7,158.1
				c169,114,301.2,274.6,380.7,462.3c26.9,63.6,47.4,129.6,61.2,197.3c28.5,139.8,28.5,283.8,0,423.6
				c-27.5,134.4-81.3,262.1-158.1,375.8c-114.1,168.9-274.7,301.2-462.3,380.7c-63.6,26.9-129.6,47.4-197.3,61.2
				c-139.8,28.5-283.8,28.5-423.6,0c-134.4-27.5-262.1-81.3-375.8-158.1c-168.9-114.1-301.2-274.7-380.7-462.3
				c-26.9-63.6-47.4-129.6-61.2-197.3c-28.5-139.8-28.5-283.8,0-423.6c27.5-134.4,81.3-262.1,158.1-375.7
				c114.1-169,274.6-301.2,462.3-380.7c63.6-26.9,129.6-47.4,197.3-61.2C3075.3,644.6,3146.2,637.4,3217.4,637.4 M3217.4,632.4
				c-583.1,0-1055.8,472.7-1055.8,1055.8s472.7,1055.8,1055.8,1055.8s1055.8-472.7,1055.8-1055.8S3800.5,632.4,3217.4,632.4
				L3217.4,632.4z"/>
			<path class="st0" d="M2287.5,1567.9c66.5,0,120.3,53.9,120.3,120.3s-53.9,120.3-120.3,120.3c-66.5,0-120.3-53.9-120.3-120.3
				c0-31.9,12.7-62.5,35.2-85.1C2224.9,1580.5,2255.6,1567.9,2287.5,1567.9 M2287.5,1562.9c-69.2,0-125.3,56.1-125.3,125.3
				c0,69.2,56.1,125.3,125.3,125.3c69.2,0,125.3-56.1,125.3-125.3c0,0,0,0,0,0C2412.8,1619.1,2356.7,1562.9,2287.5,1562.9z"/>
			<path class="st0" d="M2287.8,1577c26.6,0,52.4,9.2,73,26.1c-25.8,68-44.7,138.4-56.5,210.2c-1.6,9.9-3.1,19.9-4.4,29.7
				c-37.9,9.8-75.1,22.5-111.2,37.8c-11.1-62.2-16.7-125.2-16.6-188.4C2172.3,1628.6,2224.1,1577,2287.8,1577 M2287.8,1567
				c-69.3,0-125.5,56.1-125.6,125.3c-0.2,68,6.2,135.8,19,202.5c41.2-18.3,84-33,127.8-44c1.6-12.1,3.3-24.1,5.3-36.1
				c12-73.4,31.6-145.4,58.4-214.8C2349.6,1578.7,2319.3,1566.9,2287.8,1567L2287.8,1567z"/>
			<path class="st0" d="M2287.8,1577c63.7,0.3,115.1,52.1,114.9,115.8c-0.2,54-37.8,100.6-90.5,112.2l-6.7,1.4l-1.1,6.7
				c-1.6,9.9-3.1,19.9-4.4,29.7c-37.9,9.8-75.1,22.5-111.2,37.8c-11.1-62.2-16.7-125.2-16.6-188.3
				C2172.2,1628.6,2224.1,1576.9,2287.8,1577 M2287.8,1566.9c-69.2,0-125.6,56.1-125.6,125.3c-0.2,68,6.2,135.8,19,202.5
				c41.3-18.3,84-33,127.8-43.9c1.6-12.1,3.3-24.1,5.3-36.1c67.6-14.8,110.5-81.5,95.8-149.2
				C2397.5,1608.2,2346.7,1567.1,2287.8,1566.9L2287.8,1566.9z"/>
			<path class="st0" d="M2287.8,1577c63.7,0,115.3,51.6,115.3,115.3s-51.6,115.3-115.3,115.3c-63.7,0-115.3-51.6-115.3-115.3
				c0-30.6,12.2-59.9,33.8-81.5C2227.9,1589.1,2257.2,1577,2287.8,1577 M2287.8,1567c-69.2,0-125.4,56.1-125.4,125.3
				c0,69.2,56.1,125.4,125.3,125.4c69.2,0,125.4-56.1,125.4-125.3c0-35.1-14.7-68.5-40.5-92.2
				C2349.6,1578.8,2319.3,1567,2287.8,1567z"/>
			<rect x="-11" y="10" class="st1" width="4556.9" height="3441.8"/>
		</g>
	</g>
</g>
</svg>
