<svg xmlns="http://www.w3.org/2000/svg" viewBox="0 0 4556.92 3441.75"><defs><style>.cls-1{fill:#f2f2f3;}.cls-2{fill:none;}</style></defs><g id="Layer_2" data-name="Layer 2"><g id="Layer_6" data-name="Layer 6"><g id="Layer_9" data-name="Layer 9"><path class="cls-1" d="M2511.56,1818.38a790.14,790.14,0,0,1,158.05,15.93,780.16,780.16,0,0,1,280.41,118,786.53,786.53,0,0,1,284.13,345,780.61,780.61,0,0,1,45.69,147.2,792,792,0,0,1,0,316.1,779.91,779.91,0,0,1-118,280.41,786.68,786.68,0,0,1-345,284.13,780.38,780.38,0,0,1-147.2,45.69,792,792,0,0,1-316.1,0,779.54,779.54,0,0,1-280.4-118,786.38,786.38,0,0,1-284.13-345,780.41,780.41,0,0,1-45.7-147.2,792,792,0,0,1,0-316.1,780,780,0,0,1,118-280.4,786.53,786.53,0,0,1,345-284.13,780.64,780.64,0,0,1,147.2-45.7,790.14,790.14,0,0,1,158-15.93m0-5c-435.87,0-789.21,353.34-789.21,789.21s353.34,789.21,789.21,789.21,789.21-353.34,789.21-789.21-353.34-789.21-789.21-789.21Z"/><path class="cls-1" d="M3398.58,895.23a1091.11,1091.11,0,0,1,218.28,22,1077.2,1077.2,0,0,1,387.25,163,1086.28,1086.28,0,0,1,392.4,476.51,1077.85,1077.85,0,0,1,63.1,203.29,1093.77,1093.77,0,0,1,0,436.54,1076.87,1076.87,0,0,1-163,387.26,1086.19,1086.19,0,0,1-476.5,392.39,1077.37,1077.37,0,0,1-203.29,63.11,1093.82,1093.82,0,0,1-436.55,0,1077.34,1077.34,0,0,1-387.26-163,1086.12,1086.12,0,0,1-392.39-476.51,1076.92,1076.92,0,0,1-63.11-203.29,1093.77,1093.77,0,0,1,0-436.54,1077.34,1077.34,0,0,1,163-387.26A1086.12,1086.12,0,0,1,2977,980.34a1077.15,1077.15,0,0,1,203.29-63.11,1091.08,1091.08,0,0,1,218.27-22m0-5c-600.9,0-1088,487.13-1088,1088s487.13,1088,1088,1088,1088-487.13,1088-1088-487.12-1088-1088-1088Z"/><path class="cls-1" d="M3228.36,627.43a1059.15,1059.15,0,0,1,211.79,21.35A1044.86,1044.86,0,0,1,3815.89,806.9a1053.75,1053.75,0,0,1,380.73,462.34,1044.62,1044.62,0,0,1,61.23,197.25,1061.09,1061.09,0,0,1,0,423.57,1045.22,1045.22,0,0,1-158.11,375.75,1054.11,1054.11,0,0,1-462.34,380.73,1046.08,1046.08,0,0,1-197.25,61.23,1061.09,1061.09,0,0,1-423.57,0,1045,1045,0,0,1-375.75-158.12,1054,1054,0,0,1-380.73-462.34,1046.08,1046.08,0,0,1-61.23-197.25,1061.09,1061.09,0,0,1,0-423.57A1045,1045,0,0,1,2357,1090.74,1054,1054,0,0,1,2819.33,710a1045.86,1045.86,0,0,1,197.25-61.23,1059.05,1059.05,0,0,1,211.78-21.35m0-5c-583.12,0-1055.84,472.72-1055.84,1055.85s472.72,1055.84,1055.84,1055.84S4284.2,2261.4,4284.2,1678.28,3811.49,622.43,3228.36,622.43Z"/><path class="cls-1" d="M2298.51,1557.94a120.33,120.33,0,1,1-85.09,35.25,119.55,119.55,0,0,1,85.09-35.25m0-5a125.34,125.34,0,1,0,125.33,125.34,125.34,125.34,0,0,0-125.33-125.34Z"/><path class="cls-1" d="M2298.83,1567a115,115,0,0,1,73,26.06,1093.51,1093.51,0,0,0-56.46,210.19c-1.62,9.92-3.11,19.87-4.44,29.66a796.69,796.69,0,0,0-111.19,37.78,1059.42,1059.42,0,0,1-16.55-188.36A115.57,115.57,0,0,1,2298.83,1567m0-10a125.58,125.58,0,0,0-125.61,125.33,1060.6,1060.6,0,0,0,19,202.52A783.65,783.65,0,0,1,2320,1840.88q2.34-18.12,5.29-36.06a1080.25,1080.25,0,0,1,58.43-214.76,124.87,124.87,0,0,0-84.87-33.11Z"/><path class="cls-1" d="M2298.84,1567A115.35,115.35,0,0,1,2323.18,1795l-6.67,1.43-1.1,6.73c-1.63,9.92-3.12,19.87-4.45,29.66a795.35,795.35,0,0,0-111.19,37.77,1059.55,1059.55,0,0,1-16.55-188.35c0-63.6,51.87-115.33,115.62-115.33m0-10c-69.22,0-125.62,56.11-125.62,125.33a1060.6,1060.6,0,0,0,19,202.52A783.65,783.65,0,0,1,2320,1840.88q2.34-18.12,5.29-36.06A125.35,125.35,0,0,0,2298.84,1557Z"/><path class="cls-1" d="M2298.84,1567a115.32,115.32,0,1,1-81.56,33.78,115,115,0,0,1,81.56-33.78m0-10a125.35,125.35,0,1,0,84.87,33.11,125.33,125.33,0,0,0-84.87-33.11Z"/><rect class="cls-2" width="4556.92" height="3441.75"/></g></g></g></svg>