<svg xmlns="http://www.w3.org/2000/svg" viewBox="0 0 761.03 761.51"><defs><style>.cls-1{fill:#fff;}</style></defs><g id="Layer_2" data-name="Layer 2"><g id="Layer_5" data-name="Layer 5"><path d="M584.18,320.33a182.06,182.06,0,0,1-364.1,2.36c0-.78,0-1.58,0-2.36s0-1.57,0-2.35a182.06,182.06,0,0,1,364.1,2.35Z"/><path d="M584.18,320.33a182.13,182.13,0,0,1-135.31,176q-4.32,24.12-7.8,48.52A1056.7,1056.7,0,0,0,248,611.29a1521.09,1521.09,0,0,1-27.92-288.6c0-.78,0-1.58,0-2.36s0-1.57,0-2.35a182.06,182.06,0,0,1,364.1,2.35Z"/><path class="cls-1" d="M402.12,181.63a138.73,138.73,0,0,1,35.65,272.79l-26.71,7.08-4.86,27.2q-1.89,10.53-3.63,21.19A1104.24,1104.24,0,0,0,281.25,550a1487.59,1487.59,0,0,1-17.82-227.4v-.74c0-.51,0-1,0-1.55s0-1,0-1.55v-.26A138.68,138.68,0,0,1,402.12,181.63m0-43.35a182,182,0,0,0-182,179.7c0,.78,0,1.57,0,2.35s0,1.58,0,2.36A1521.09,1521.09,0,0,0,248,611.29a1056.7,1056.7,0,0,1,193.07-66.44q3.48-24.4,7.8-48.52a182.08,182.08,0,0,0-46.75-358Z"/><path d="M584.18,320.33a182.13,182.13,0,0,1-135.31,176,1400.55,1400.55,0,0,1,88.36-298A181.31,181.31,0,0,1,584.18,320.33Z"/><path class="cls-1" d="M537.23,198.32a182.08,182.08,0,0,1-88.36,298,1400.55,1400.55,0,0,1,88.36-298m-13.48-79.54-26.46,62.68A1447.07,1447.07,0,0,0,406.2,488.69l-12,67L460,538.23a225.43,225.43,0,0,0,109.41-369l-45.63-50.46Z"/><path class="cls-1" d="M402.12,181.63a138.73,138.73,0,0,1,35.66,272.79A139.54,139.54,0,0,1,402.12,459,138.68,138.68,0,0,1,263.43,322.14v-.26c0-.51,0-1,0-1.55s0-1,0-1.55v-.26A138.68,138.68,0,0,1,402.12,181.63m0-43.35a182,182,0,0,0-182,179.7c0,.78,0,1.57,0,2.35s0,1.58,0,2.36a182.05,182.05,0,1,0,182-184.41Z"/><path class="cls-1" d="M402.12,181.63a138.73,138.73,0,0,1,35.66,272.79A139.54,139.54,0,0,1,402.12,459,138.68,138.68,0,0,1,263.43,322.14v-.26c0-.51,0-1,0-1.55s0-1,0-1.55v-.26A138.68,138.68,0,0,1,402.12,181.63m0-43.35a182,182,0,0,0-182,179.7c0,.78,0,1.57,0,2.35s0,1.58,0,2.36a182.05,182.05,0,1,0,182-184.41Z"/><path d="M592.66,82.15A366.76,366.76,0,0,0,246,40C110.38,93.58,14.45,225.85,14.45,380.52c0,113.94,52.06,215.72,133.69,282.86a366.53,366.53,0,0,0,278.62,80.29C560.83,726.78,672.31,637.38,720.7,516a365.12,365.12,0,0,0,25.88-135.47C746.58,257.42,685.82,148.52,592.66,82.15ZM248,611.28a1521,1521,0,0,1-27.92-288.6c0-.78,0-1.58,0-2.36s0-1.57,0-2.35A182.06,182.06,0,1,1,448.87,496.32q-4.32,24.12-7.8,48.52A1057.46,1057.46,0,0,0,248,611.28Z"/><path class="cls-1" d="M380.51,761a381.12,381.12,0,0,1-108-15.55,380.67,380.67,0,0,1-31.84-719A381.16,381.16,0,0,1,601,70.38h0A380.12,380.12,0,0,1,761,380.52,380.16,380.16,0,0,1,428.57,758,383.88,383.88,0,0,1,380.51,761Zm0-732.13A350.09,350.09,0,0,0,251.29,53.39C116.19,106.82,28.9,235.22,28.9,380.52A351.19,351.19,0,0,0,380.51,732.13,351.43,351.43,0,0,0,707.27,510.64a352,352,0,0,0-123-416.72h0A349.27,349.27,0,0,0,380.51,28.9ZM237.32,632l-3.5-18a1539.58,1539.58,0,0,1-28.18-291.24c0-.82,0-1.66,0-2.49s0-1.75,0-2.61a196.5,196.5,0,1,1,255.91,190c-2.24,13-4.31,26.16-6.18,39.21L454,556.61l-9.55,2.29A1044.63,1044.63,0,0,0,254,624.43ZM402.12,152.7c-91.25,0-166.43,74.22-167.59,165.45,0,.77,0,1.48,0,2.17s0,1.4,0,2.1v.24a1512.74,1512.74,0,0,0,24.29,268,1074.84,1074.84,0,0,1,169.36-57.53c2-13.15,4.14-26.34,6.47-39.33l1.62-9.07,8.9-2.36A167.64,167.64,0,0,0,402.12,152.7Z"/><path d="M720.7,516C672.31,637.38,560.83,726.78,426.76,743.67a365.2,365.2,0,0,1-278.62-80.29A1062.86,1062.86,0,0,1,690.35,515.55Q705.58,515.55,720.7,516Z"/><path class="cls-1" d="M380.51,761a381.12,381.12,0,0,1-108-15.55,377.29,377.29,0,0,1-133.55-71L123,661.43l17.76-10.5A1077.51,1077.51,0,0,1,690.35,501.1c10.2,0,20.55.15,30.76.44l20.67.59-7.66,19.21A380.35,380.35,0,0,1,380.51,761ZM174,665.13a348.12,348.12,0,0,0,106.69,52.64A352,352,0,0,0,698.86,530c-2.84,0-5.68,0-8.51,0a1057.69,1057.69,0,0,0-245.92,28.9A1044.63,1044.63,0,0,0,254,624.43C227,636.76,200.12,650.41,174,665.13Z"/><path d="M746.58,380.52A365.12,365.12,0,0,1,720.7,516C672.31,637.38,560.83,726.78,426.76,743.67a368.55,368.55,0,0,1-150.16-12Q259.91,672.42,248,611.28a1057.46,1057.46,0,0,1,193.07-66.44q3.48-24.4,7.8-48.52A182.08,182.08,0,1,0,220.08,318,1520.28,1520.28,0,0,1,246,40a366.76,366.76,0,0,1,346.68,42.2C685.82,148.52,746.58,257.42,746.58,380.52Z"/><path class="cls-1" d="M380.51,761a381.12,381.12,0,0,1-108-15.55l-7.66-2.26-2.16-7.68c-11.22-39.82-20.94-80.7-28.87-121.5l-2.18-11.17L242,598.14a1074.52,1074.52,0,0,1,186.18-65c2-13.15,4.14-26.34,6.47-39.33l1.62-9.07,8.9-2.36A167.64,167.64,0,0,0,402.12,152.7c-91.25,0-166.43,74.22-167.59,165.45l-28.89-.2A1538.82,1538.82,0,0,1,231.78,37.29l1.46-7.84,7.43-2.93A381.16,381.16,0,0,1,601,70.38,380.12,380.12,0,0,1,761,380.52,380.16,380.16,0,0,1,428.57,758,383.88,383.88,0,0,1,380.51,761Zm-92.17-41.1A351.62,351.62,0,1,0,258.72,50.55a1501.91,1501.91,0,0,0-20.29,161,198.17,198.17,0,0,1,25.58-31A196.53,196.53,0,1,1,461.55,507.68c-2.24,13-4.31,26.16-6.18,39.21L454,556.61l-9.55,2.29a1045,1045,0,0,0-180,60.85C271.23,653.38,279.25,687,288.34,719.93Z"/><path d="M746.58,380.52A365.12,365.12,0,0,1,720.7,516C672.31,637.38,560.83,726.78,426.76,743.67a1420.2,1420.2,0,0,1,14.31-198.83q3.48-24.4,7.8-48.52a182.1,182.1,0,0,0,88.36-298q25.13-59.5,55.43-116.14C685.82,148.52,746.58,257.42,746.58,380.52Z"/><path class="cls-1" d="M412.28,760.06l0-16.42A1440.53,1440.53,0,0,1,426.76,542.8c2.34-16.35,5-32.84,7.89-49l1.62-9.07,8.9-2.36A167.64,167.64,0,0,0,526.51,208l-6.17-6.83,3.58-8.48c16.76-39.72,35.6-79.2,56-117.34l7.74-14.49L601,70.38A380.12,380.12,0,0,1,761,380.52,380.16,380.16,0,0,1,428.57,758Zm49.27-252.38c-2.24,13-4.31,26.16-6.18,39.21a1411.4,1411.4,0,0,0-14,180,351.67,351.67,0,0,0,156.21-623c-15.6,30.05-30.19,60.84-43.5,91.82a196.56,196.56,0,0,1-92.5,312Z"/><path d="M720.7,517.44C672.31,638.83,560.83,728.23,426.76,745.13A1420,1420,0,0,1,441.07,546.3,1069.37,1069.37,0,0,1,690.35,517Q705.58,517,720.7,517.44Z"/><path class="cls-1" d="M412.28,761.51l0-16.41a1440.57,1440.57,0,0,1,14.45-200.85l1.39-9.72,9.55-2.29a1086.48,1086.48,0,0,1,252.65-29.68c10.2,0,20.55.14,30.76.44l20.67.59-7.66,19.2A380.36,380.36,0,0,1,428.57,759.46ZM454,558.1a1410.66,1410.66,0,0,0-12.67,170.23A351.47,351.47,0,0,0,698.86,531.49l-8.51,0A1058.55,1058.55,0,0,0,454,558.1Z"/><path d="M720.7,517.44C672.31,638.83,560.83,728.23,426.76,745.13A1420,1420,0,0,1,441.07,546.3,1069.37,1069.37,0,0,1,690.35,517Q705.58,517,720.7,517.44Z"/><path class="cls-1" d="M412.28,761.51l0-16.41a1440.57,1440.57,0,0,1,14.45-200.85l1.39-9.72,9.55-2.29a1086.48,1086.48,0,0,1,252.65-29.68c10.2,0,20.55.14,30.76.44l20.67.59-7.66,19.2A380.36,380.36,0,0,1,428.57,759.46ZM454,558.1a1410.66,1410.66,0,0,0-12.67,170.23A351.47,351.47,0,0,0,698.86,531.49l-8.51,0A1058.55,1058.55,0,0,0,454,558.1Z"/></g></g></svg>