<svg xmlns="http://www.w3.org/2000/svg" xmlns:xlink="http://www.w3.org/1999/xlink" height="53.02979201798814" width="83">
  <defs>
    <rect id="rect-1" opacity="1" x="0" y="0.02979201798802933" width="83" height="53.00000000000003"/>
    <mask id="mask-2" maskUnits="userSpaceOnUse" maskContentUnits="userSpaceOnUse">
      <rect opacity="1" x="0" y="0" width="83" height="53.02979201798814" fill="Black"/>
      <use xlink:href="#rect-1" fill="White"/>
    </mask>
  </defs>
  <g opacity="1">
    <g/>
    <g mask="url(#mask-2)">
      <g opacity="1">
        <g opacity="1">
          <path fill="rgb(255,255,255)" fill-opacity="1" opacity="1" fill-rule="evenodd" d="M0 36.673974142777084C0 36.912310286678164 1.6599999999999977 38.49128724002273 5.217142857142851 38.49128724002273C11.412499999999985 38.49128724002273 21.579999999999977 32.92017987633527 21.579999999999977 26.45531197301878C21.579999999999977 23.327150084317264 9.722857142857134 22.552557616638794 9.722857142857134 20.645868465430244C9.72285714285713 18.2029229904443 19.56428571428569 8.967397414277901 20.572142857142833 8.967397414277901C22.46928571428569 8.967397414277901 13.843214285714268 15.908937605396515 13.843214285714268 15.908937605396515C13.843214285714268 15.908937605396515 25.90785714285711 6.703204047217753 23.269642857142827 6.703204047217753C19.94964285714283 6.703204047217753 6.076785714285706 18.14333895446903 6.076785714285706 21.33108487914582C6.076785714285706 24.191118605958636 18.82321428571426 24.995503091624744 18.82321428571426 27.646992692524133C18.82321428571426 33.2181000562116 8.00357142857142 37.984822934232966 5.187499999999994 37.984822934232966C2.46035714285714 37.984822934232966 0.47428571428571353 36.882518268690525 0.47428571428571353 36.673974142777084C0.47428571428571353 36.55480607082655 6.313928571428563 33.6649803260261 11.293928571428557 31.400786958965956C17.637499999999978 28.481169196177866 23.23999999999997 26.127599775154813 23.23999999999997 26.127599775154813C9.72285714285713 31.66891512085466 0 36.31646992692549 0 36.673974142777084L0 36.673974142777084Z"/>
        </g>
        <g opacity="1">
          <path fill="rgb(255,255,255)" fill-opacity="1" opacity="1" fill-rule="evenodd" d="M83 24.28049465992182C48.58464285714286 24.28049465992182 3.8239285714285813 45.61157953906739 3.8239285714285813 48.829117481731814C3.8239285714285813 51.30185497470539 9.960000000000008 53.02979201798813 15.088214285714292 53.02979201798813C22.587857142857146 53.02979201798813 36.549642857142864 24.310286677909453 36.549642857142864 23.32715008431755C36.549642857142864 22.761101742552512 34.38571428571429 23.207982012367015 34.14857142857144 23.207982012367015C33.55571428571429 23.207982012367015 31.569642857142867 32.68184373243446 27.034285714285723 32.68184373243446C25.611428571428583 32.68184373243446 28.516428571428577 26.574480044969597 28.516428571428577 24.63799887577342C28.516428571428577 23.654862282181515 23.240000000000013 26.127599775155094 23.240000000000013 26.127599775155094C23.240000000000013 26.127599775155094 25.967142857142868 25.263631253513722 25.967142857142868 25.948847667229295C25.967142857142868 26.395727937043798 22.41000000000001 33.39685216413767 26.826785714285727 33.39685216413767C28.990714285714297 33.39685216413767 30.087500000000013 32.115795390669426 30.087500000000013 32.115795390669426C30.087500000000013 32.115795390669426 20.779642857142868 52.01686340640859 13.872857142857157 52.01686340640859C9.545000000000014 52.01686340640859 6.936428571428587 50.94435075885379 6.936428571428587 49.06745362563288C6.9660714285714445 46.4159640247335 48.58464285714286 24.280494659921818 83 24.280494659921818L83 24.28049465992182Z"/>
        </g>
        <g opacity="1">
          <path fill="rgb(255,255,255)" fill-opacity="1" opacity="1" fill-rule="evenodd" d="M49.08857142857142 1.0129286115795413C48.8217857142857 1.0129286115795413 33.644642857142884 31.43057897695335 36.6682142857143 31.43057897695335C38.772857142857156 31.43057897695335 49.20714285714285 16.802698145025296 49.47392857142856 16.29623383923553C49.47392857142856 16.29623383923553 49.50357142857141 16.266441821247895 49.50357142857141 16.29623383923553C49.681428571428555 16.415401911186063 52.11214285714284 16.743114109050033 53.00142857142855 16.415401911186063C51.93428571428569 16.534569983136596 49.50357142857141 16.117481731309727 49.4442857142857 16.117481731309727C49.38499999999999 16.117481731309727 38.65428571428572 30.864530635188313 38.65428571428572 29.255761663856106C38.65428571428572 25.680719505340083 50.83749999999998 0 51.34142857142855 0C49.829642857142844 0.14896008993816767 47.724999999999994 0.7745924676784713 47.724999999999994 0.7745924676784713C47.724999999999994 0.7745924676784713 48.762499999999996 1.0129286115795393 49.08857142857142 1.0129286115795393L49.08857142857142 1.0129286115795413Z"/>
        </g>
        <g opacity="1">
          <path fill="rgb(255,255,255)" fill-opacity="1" opacity="1" fill-rule="evenodd" d="M57.922149658203125 18.53064651017553C57.922149658203125 18.739173121503654 54.39463806152344 23.14838332658178 54.39463806152344 24.786963648847404C54.39463806152344 27.140540309003654 59.58213806152344 23.56549758439428 61.62750244140625 17.27936477189428C61.657135009765625 17.338965601972404 61.7164306640625 17.398535914472404 61.7164306640625 17.398535914472404C61.24214172363281 20.347937769941154 56.67713928222656 26.365943141034904 54.48356628417969 26.365943141034904C52.02320861816406 26.365943141034904 52.28999328613281 25.23383254533178 52.73463439941406 23.744239039472404C52.37892150878906 24.45923537736303 50.570709228515625 27.795935816816154 48.466064453125 27.795935816816154C46.005706787109375 27.795935816816154 45.67964172363281 25.323218531659904 46.21321105957031 22.999427027753654C46.71714782714844 20.76502151017553 49.62214660644531 16.653723902753654 52.26036071777344 16.41541213517553C54.57249450683594 16.20685500626928 55.78785705566406 18.35187453751928 55.78785705566406 18.62000197892553C55.847137451171875 18.62000197892553 56.380706787109375 17.81561965470678 56.58821105957031 17.81561965470678C56.85499572753906 17.81561965470678 57.922149658203125 18.232703394941154 57.922149658203125 18.53064651017553ZM48.85142517089844 27.170325465253654C50.33357238769531 27.170325465253654 51.75642395019531 24.96570510392553 54.54286193847656 19.573340601972404C54.89857482910156 18.91791457658178 54.957855224609375 17.994361109784904 53.979644775390625 17.428321070722404C52.556793212890625 16.623938746503654 50.15571594238281 19.72229690080053 48.881072998046875 22.135474391034904C47.60643005371094 24.518836207441154 47.66571044921875 27.170325465253654 48.85142517089844 27.170325465253654Z"/>
        </g>
        <g opacity="1">
          <path fill="rgb(255,255,255)" fill-opacity="1" opacity="1" fill-rule="evenodd" d="M61.420000000000144 17.10061832490192C61.242142857142994 17.18999437886482 59.256071428571545 25.38279932546405 59.34500000000012 25.472175379426954C59.37464285714297 25.501967397414585 61.03464285714299 25.263631253513516 61.33107142857156 25.17425519955062C61.65714285714299 23.297358066329704 62.012857142857285 21.956717256886193 62.33892857142872 21.00337268128192C63.19857142857158 18.620011242271232 65.8367857142859 18.649803260258867 67.31892857142877 18.709387296234134C67.37821428571448 18.649803260258864 67.49678571428592 18.471051152333064 67.49678571428592 18.351883080382528C66.96321428571447 18.17313097245673 63.406071428571586 18.17313097245673 62.57607142857158 19.305227655986805C62.60571428571444 18.917931422147568 63.109642857143015 17.160202360877186 63.0503571428573 17.100618324901923C62.78357142857158 17.16020236087719 61.568214285714426 17.01124227093902 61.420000000000144 17.100618324901923L61.420000000000144 17.10061832490192Z"/>
        </g>
      </g>
    </g>
  </g>
</svg>