<svg xmlns="http://www.w3.org/2000/svg" viewBox="0 0 280.02 177.86"><g id="Layer_2" data-name="Layer 2"><g id="Layer_6" data-name="Layer 6"><path d="M0,123c0,.84,5.58,6.14,17.58,6.14,20.89,0,55.19-18.67,55.19-40.37,0-10.52-40-13.09-40-19.54C32.81,61,66,30,69.36,30c6.45,0-22.67,23.33-22.67,23.33S87.36,22.44,78.47,22.44c-11.16,0-58,38.45-58,49.12,0,9.55,43,12.25,43,21.2,0,18.66-36.53,34.68-46,34.68-9.22,0-15.89-3.72-15.89-4.44,0-.44,19.73-10.1,36.51-17.74,21.43-9.75,40.31-17.7,40.31-17.7C32.77,106.22,0,121.76,0,123Z"/><path d="M280,81.42C163.88,81.42,12.89,153,12.89,163.79c0,8.3,20.67,14.07,38,14.07,25.31,0,72.42-96.44,72.42-99.7,0-1.91-7.34-.38-8.12-.38-2,0-8.71,31.78-24,31.78-4.78,0,5-20.51,5-27,0-3.25-17.75,5-17.75,5s9.18-2.9,9.18-.6c0,1.52-12,25,2.89,25a15.21,15.21,0,0,0,11-4.3s-31.39,66.77-54.65,66.77c-14.6,0-23.38-3.64-23.38-9.87C23.48,155.7,163.88,81.42,280,81.42Z"/><path d="M165.63,3.34c-.85,0-52.07,102.15-41.85,102.15,7.09,0,42.32-49.06,43.24-50.77a.07.07,0,0,1,.1,0c.56.38,8.82,1.51,11.83.4-3.59.45-11.79-1-12-1s-36.45,49.51-36.45,44.12c0-12,41.11-98.22,42.82-98.22a86.87,86.87,0,0,0-12.22,2.57A34.07,34.07,0,0,0,165.63,3.34Z"/><path d="M183.48,83.12c0-5.48,11.93-20.3,11.93-21,0-1-3.6-2.35-4.52-2.35-.7,0-2.45,2.67-2.66,2.67,0-.86-4.15-8.07-11.89-7.37-8.86.79-18.68,14.56-20.42,22.13-1.78,7.75-.65,16.12,7.64,16.12,7.11,0,13.24-11.16,14.4-13.62-1.48,5-2.38,8.79,5.89,8.79,7.41,0,22.82-20.21,24.43-30.09,0,0-.16-.22-.34-.42C201,79,183.48,91,183.48,83.12ZM184,65.6c-9.45,18.06-14.16,25.48-19.23,25.5-4,0-4.17-8.92.12-16.91s12.4-18.53,17.22-15.75C185.37,60.29,185.21,63.35,184,65.6Z"/><path d="M207.22,57.32c-.61.34-7.35,27.79-7,28.14a48.37,48.37,0,0,0,6.67-1,90.49,90.49,0,0,1,3.44-14c2.92-8,11.77-7.92,16.79-7.68a2.1,2.1,0,0,0,.61-1.17C226,61.08,213.9,61,211.15,64.8c.13-1.25,1.81-7.16,1.58-7.39C211.8,57.47,207.72,57,207.22,57.32Z"/></g></g></svg>